<svg id="Capa_1" enable-background="new 0 0 512 512" height="512" viewBox="0 0 512 512" width="512" xmlns="http://www.w3.org/2000/svg" xmlns:xlink="http://www.w3.org/1999/xlink"><linearGradient id="SVGID_1_" gradientUnits="userSpaceOnUse" x1="256" x2="256" y1="481" y2="31"><stop offset="0" stop-color="#fd5900"/><stop offset="1" stop-color="#ffde00"/></linearGradient><linearGradient id="SVGID_2_" gradientUnits="userSpaceOnUse" x1="256" x2="256" y1="420.998" y2="151.008"><stop offset="0" stop-color="#ffe59a"/><stop offset="1" stop-color="#ffffd5"/></linearGradient><g><g><g><path d="m510.023 458.559-241-420.549c-5.332-9.346-20.713-9.346-26.045 0l-241 420.549c-2.651 4.644-2.637 10.342.044 14.971 2.695 4.628 7.631 7.47 12.978 7.47h482c5.347 0 10.283-2.842 12.979-7.471 2.68-4.629 2.695-10.327.044-14.97z" fill="url(#SVGID_1_)"/></g></g><g><g><path d="m328.422 247.592c-2.798-4.116-7.442-6.592-12.422-6.592h-45v-75c0-7.192-5.098-13.374-12.158-14.736-6.973-1.304-14.106 2.461-16.772 9.17l-60 150c-1.846 4.614-1.274 9.858 1.509 13.975 2.797 4.115 7.441 6.591 12.421 6.591h45v75c0 7.192 5.098 13.374 12.158 14.736 7.335 1.354 14.176-2.679 16.772-9.17l60-150c1.846-4.614 1.275-9.858-1.508-13.974z" fill="url(#SVGID_2_)"/></g></g></g></svg>